<svg width="69" height="72" viewBox="0 0 69 72" fill="none" xmlns="http://www.w3.org/2000/svg">
<path d="M40.5616 17.9438V19.8932C55.643 22.7443 67.0894 36.0142 67.0894 51.9134C67.0894 57.6307 65.6106 63.0083 63.0114 67.6829L61.0777 65.7491V51.7304L53.0595 43.7122V57.7309L50.491 55.1624V41.1437L42.4728 33.1255V47.1442L38.5094 43.1809V30.0745C38.5094 27.1476 37.5576 24.3071 35.8043 21.9749V6.8577H40.561V4.25035H35.8043V0H33.1969V4.25035H28.4397V6.8577H33.1969V21.9792C31.4449 24.3103 30.4912 27.1495 30.4912 30.0745V43.1796L26.5316 47.1392V33.1205L18.5097 41.1425V55.1612L15.9412 57.7297V43.711L7.92294 51.7292V65.7479L5.9892 67.6816C3.39062 63.0077 1.91118 57.63 1.91118 51.9121C1.91118 36.013 13.3576 22.7431 28.439 19.892V17.9426C12.2955 20.8131 0 34.954 0 51.9115C0 58.1601 1.66616 64.0234 4.5862 69.0834C5.1019 69.9813 5.66022 70.8567 6.26052 71.7014H7.92294H8.62601H9.30652L15.9412 65.0667L18.5097 62.4982L26.5316 54.4725L30.4912 50.5129L34.5003 46.5038L38.5094 50.5129L42.4728 54.4763L50.491 62.4982L53.0595 65.0667L59.6947 71.7014H60.3746H61.0777H62.7401C63.3404 70.8567 63.8981 69.9813 64.4138 69.0834C67.3338 64.0234 69 58.1601 69 51.9115C69.0006 34.9552 56.7057 20.8181 40.5616 17.9438ZM20.6915 52.9793V47.3228C20.6915 45.8477 21.3376 44.4222 22.5225 43.298C23.7037 44.4216 24.3535 45.8471 24.3535 47.3228V49.318L20.6915 52.9793ZM44.6515 47.3228C44.6515 45.8477 45.2976 44.4222 46.4825 43.298C47.6637 44.4216 48.3135 45.8471 48.3135 47.3228V52.983L44.6521 49.3217L44.6515 47.3228Z" fill="#BF845D"/>
<path d="M34.5003 57.7163C32.1374 59.9621 30.839 62.8163 30.839 65.7677V71.7012H38.161V65.7677C38.1616 62.817 36.8639 59.9621 34.5003 57.7163Z" fill="#BF845D"/>
</svg>
