<svg width="20" height="20" viewBox="0 0 20 20" fill="none" xmlns="http://www.w3.org/2000/svg">
<path d="M17.7339 15.3531C17.444 16.0228 17.1009 16.6392 16.7034 17.2059C16.1615 17.9784 15.7179 18.5132 15.376 18.8101C14.8459 19.2976 14.2781 19.5472 13.6699 19.5614C13.2334 19.5614 12.7069 19.4372 12.0941 19.1852C11.4792 18.9344 10.9142 18.8101 10.3975 18.8101C9.85566 18.8101 9.27453 18.9344 8.65293 19.1852C8.03039 19.4372 7.52888 19.5685 7.14543 19.5815C6.56229 19.6064 5.98104 19.3496 5.40085 18.8101C5.03054 18.4872 4.56736 17.9335 4.01249 17.1491C3.41716 16.3114 2.92771 15.3401 2.54427 14.2328C2.13362 13.0367 1.92776 11.8784 1.92776 10.7571C1.92776 9.47259 2.20532 8.36475 2.76125 7.43638C3.19817 6.69067 3.77942 6.10244 4.5069 5.67061C5.23439 5.23878 6.02043 5.01873 6.86694 5.00465C7.33012 5.00465 7.93752 5.14792 8.69233 5.4295C9.44501 5.71202 9.9283 5.85529 10.1402 5.85529C10.2986 5.85529 10.8355 5.68777 11.7457 5.35378C12.6063 5.04405 13.3328 4.9158 13.9279 4.96632C15.5404 5.09646 16.7519 5.73213 17.5576 6.87737C16.1154 7.7512 15.402 8.9751 15.4162 10.5452C15.4292 11.7681 15.8729 12.7858 16.7448 13.5939C17.14 13.9689 17.5813 14.2588 18.0722 14.4646C17.9658 14.7734 17.8534 15.0692 17.7339 15.3531ZM14.0355 0.799946C14.0355 1.7585 13.6853 2.65349 12.9873 3.48189C12.1449 4.4667 11.1261 5.03577 10.0212 4.94597C10.0071 4.83097 9.99893 4.70994 9.99893 4.58276C9.99893 3.66255 10.3995 2.67775 11.1109 1.87254C11.4661 1.46484 11.9178 1.12585 12.4656 0.855432C13.0121 0.589048 13.5292 0.441731 14.0154 0.416504C14.0296 0.544647 14.0355 0.672799 14.0355 0.799934V0.799946Z" fill="white"/>
</svg>
