<svg width="45" height="45" viewBox="0 0 45 45" fill="none" xmlns="http://www.w3.org/2000/svg">
<circle cx="23" cy="23" r="19.5" fill="white" stroke="#EEEEEE"/>
<path fill-rule="evenodd" clip-rule="evenodd" d="M30.68 23.1818C30.68 22.6145 30.6291 22.069 30.5346 21.5454H23V24.64H27.3055C27.12 25.64 26.5564 26.4872 25.7091 27.0545V29.0618H28.2946C29.8073 27.6691 30.68 25.6181 30.68 23.1818Z" fill="#4285F4"/>
<path fill-rule="evenodd" clip-rule="evenodd" d="M22.9997 31C25.1597 31 26.9706 30.2837 28.2942 29.0618L25.7088 27.0546C24.9924 27.5346 24.0761 27.8182 22.9997 27.8182C20.9161 27.8182 19.1524 26.4109 18.5233 24.52H15.8506V26.5928C17.167 29.2073 19.8724 31 22.9997 31Z" fill="#34A853"/>
<path fill-rule="evenodd" clip-rule="evenodd" d="M18.5236 24.52C18.3636 24.04 18.2727 23.5272 18.2727 23C18.2727 22.4727 18.3636 21.96 18.5236 21.48V19.4072H15.8509C15.3091 20.4872 15 21.709 15 23C15 24.2909 15.3091 25.5127 15.8509 26.5927L18.5236 24.52Z" fill="#FBBC05"/>
<path fill-rule="evenodd" clip-rule="evenodd" d="M22.9997 18.1818C24.1742 18.1818 25.2288 18.5855 26.0579 19.3782L28.3524 17.0836C26.967 15.7927 25.1561 15 22.9997 15C19.8724 15 17.167 16.7927 15.8506 19.4073L18.5233 21.48C19.1524 19.5891 20.9161 18.1818 22.9997 18.1818Z" fill="#EA4335"/>
</svg>
